<svg width="1655" height="500" viewBox="0 0 1655 500" fill="none" xmlns="http://www.w3.org/2000/svg">
<g clip-path="url(#clip0_1_2)">
<rect width="1655" height="500" fill="white"/>
<g clip-path="url(#clip1_1_2)">
<path d="M572 250C572 111.929 460.071 0 322 0C183.929 0 72 111.929 72 250C72 388.071 183.929 500 322 500C460.071 500 572 388.071 572 250Z" fill="white"/>
<path d="M400.125 328.125L348.271 276.271M348.271 276.271C354.8 269.742 359.979 261.99 363.513 253.46C367.046 244.929 368.865 235.786 368.865 226.552C368.865 217.318 367.046 208.175 363.513 199.644C359.979 191.114 354.8 183.362 348.271 176.833C341.742 170.304 333.99 165.125 325.46 161.591C316.929 158.058 307.786 156.239 298.552 156.239C289.318 156.239 280.175 158.058 271.644 161.591C263.114 165.125 255.362 170.304 248.833 176.833C235.644 190.022 228.235 207.91 228.235 226.563C228.235 245.215 235.644 263.103 248.833 276.292C262.022 289.481 279.91 296.89 298.562 296.89C317.215 296.89 335.103 289.481 348.292 276.292L348.271 276.271ZM509.5 250C509.5 274.623 504.65 299.005 495.227 321.753C485.805 344.502 471.993 365.172 454.583 382.583C437.172 399.994 416.502 413.805 393.753 423.227C371.005 432.65 346.623 437.5 322 437.5C297.377 437.5 272.995 432.65 250.247 423.227C227.498 413.805 206.828 399.994 189.417 382.583C172.006 365.172 158.195 344.502 148.773 321.753C139.35 299.005 134.5 274.623 134.5 250C134.5 200.272 154.254 152.581 189.417 117.417C224.581 82.2544 272.272 62.5 322 62.5C371.728 62.5 419.419 82.2544 454.583 117.417C489.746 152.581 509.5 200.272 509.5 250Z" stroke="#1E2939" stroke-width="32" stroke-linecap="round" stroke-linejoin="round"/>
</g>
<mask id="path-3-outside-1_1_2" maskUnits="userSpaceOnUse" x="618" y="106" width="874" height="389" fill="black">
<rect fill="white" x="618" y="106" width="874" height="389"/>
<path d="M715.88 392.8C697.48 392.8 680.946 389.6 666.28 383.2C651.88 376.533 640.546 367.467 632.28 356C624.013 344.267 619.746 330.8 619.48 315.6H658.28C659.613 328.667 664.946 339.733 674.28 348.8C683.88 357.6 697.746 362 715.88 362C733.213 362 746.813 357.733 756.68 349.2C766.813 340.4 771.88 329.2 771.88 315.6C771.88 304.933 768.946 296.267 763.08 289.6C757.213 282.933 749.88 277.867 741.08 274.4C732.28 270.933 720.413 267.2 705.48 263.2C687.08 258.4 672.28 253.6 661.08 248.8C650.146 244 640.68 236.533 632.68 226.4C624.946 216 621.08 202.133 621.08 184.8C621.08 169.6 624.946 156.133 632.68 144.4C640.413 132.667 651.213 123.6 665.08 117.2C679.213 110.8 695.346 107.6 713.48 107.6C739.613 107.6 760.946 114.133 777.48 127.2C794.28 140.267 803.746 157.6 805.88 179.2H765.88C764.546 168.533 758.946 159.2 749.08 151.2C739.213 142.933 726.146 138.8 709.88 138.8C694.68 138.8 682.28 142.8 672.68 150.8C663.08 158.533 658.28 169.467 658.28 183.6C658.28 193.733 661.08 202 666.68 208.4C672.546 214.8 679.613 219.733 687.88 223.2C696.413 226.4 708.28 230.133 723.48 234.4C741.88 239.467 756.68 244.533 767.88 249.6C779.08 254.4 788.68 262 796.68 272.4C804.68 282.533 808.68 296.4 808.68 314C808.68 327.6 805.08 340.4 797.88 352.4C790.68 364.4 780.013 374.133 765.88 381.6C751.746 389.067 735.08 392.8 715.88 392.8ZM898.645 211.2C905.845 198.667 916.512 188.267 930.645 180C945.045 171.467 961.712 167.2 980.645 167.2C1000.11 167.2 1017.71 171.867 1033.45 181.2C1049.45 190.533 1061.98 203.733 1071.05 220.8C1080.11 237.6 1084.65 257.2 1084.65 279.6C1084.65 301.733 1080.11 321.467 1071.05 338.8C1061.98 356.133 1049.45 369.6 1033.45 379.2C1017.71 388.8 1000.11 393.6 980.645 393.6C961.979 393.6 945.445 389.467 931.045 381.2C916.912 372.667 906.112 362.133 898.645 349.6V494H862.245V170.8H898.645V211.2ZM1047.45 279.6C1047.45 263.067 1044.11 248.667 1037.45 236.4C1030.78 224.133 1021.71 214.8 1010.25 208.4C999.045 202 986.645 198.8 973.045 198.8C959.712 198.8 947.312 202.133 935.845 208.8C924.645 215.2 915.579 224.667 908.645 237.2C901.979 249.467 898.645 263.733 898.645 280C898.645 296.533 901.979 311.067 908.645 323.6C915.579 335.867 924.645 345.333 935.845 352C947.312 358.4 959.712 361.6 973.045 361.6C986.645 361.6 999.045 358.4 1010.25 352C1021.71 345.333 1030.78 335.867 1037.45 323.6C1044.11 311.067 1047.45 296.4 1047.45 279.6ZM1228.16 393.6C1207.62 393.6 1188.96 388.933 1172.16 379.6C1155.62 370.267 1142.56 357.067 1132.96 340C1123.62 322.667 1118.96 302.667 1118.96 280C1118.96 257.6 1123.76 237.867 1133.36 220.8C1143.22 203.467 1156.56 190.267 1173.36 181.2C1190.16 171.867 1208.96 167.2 1229.76 167.2C1250.56 167.2 1269.36 171.867 1286.16 181.2C1302.96 190.267 1316.16 203.333 1325.76 220.4C1335.62 237.467 1340.56 257.333 1340.56 280C1340.56 302.667 1335.49 322.667 1325.36 340C1315.49 357.067 1302.02 370.267 1284.96 379.6C1267.89 388.933 1248.96 393.6 1228.16 393.6ZM1228.16 361.6C1241.22 361.6 1253.49 358.533 1264.96 352.4C1276.42 346.267 1285.62 337.067 1292.56 324.8C1299.76 312.533 1303.36 297.6 1303.36 280C1303.36 262.4 1299.89 247.467 1292.96 235.2C1286.02 222.933 1276.96 213.867 1265.76 208C1254.56 201.867 1242.42 198.8 1229.36 198.8C1216.02 198.8 1203.76 201.867 1192.56 208C1181.62 213.867 1172.82 222.933 1166.16 235.2C1159.49 247.467 1156.16 262.4 1156.16 280C1156.16 297.867 1159.36 312.933 1165.76 325.2C1172.42 337.467 1181.22 346.667 1192.16 352.8C1203.09 358.667 1215.09 361.6 1228.16 361.6ZM1432.82 200.8V330C1432.82 340.667 1435.08 348.267 1439.62 352.8C1444.15 357.067 1452.02 359.2 1463.22 359.2H1490.02V390H1457.22C1436.95 390 1421.75 385.333 1411.62 376C1401.48 366.667 1396.42 351.333 1396.42 330V200.8H1368.02V170.8H1396.42V115.6H1432.82V170.8H1490.02V200.8H1432.82Z"/>
</mask>
<path d="M715.88 392.8C697.48 392.8 680.946 389.6 666.28 383.2C651.88 376.533 640.546 367.467 632.28 356C624.013 344.267 619.746 330.8 619.48 315.6H658.28C659.613 328.667 664.946 339.733 674.28 348.8C683.88 357.6 697.746 362 715.88 362C733.213 362 746.813 357.733 756.68 349.2C766.813 340.4 771.88 329.2 771.88 315.6C771.88 304.933 768.946 296.267 763.08 289.6C757.213 282.933 749.88 277.867 741.08 274.4C732.28 270.933 720.413 267.2 705.48 263.2C687.08 258.4 672.28 253.6 661.08 248.8C650.146 244 640.68 236.533 632.68 226.4C624.946 216 621.08 202.133 621.08 184.8C621.08 169.6 624.946 156.133 632.68 144.4C640.413 132.667 651.213 123.6 665.08 117.2C679.213 110.8 695.346 107.6 713.48 107.6C739.613 107.6 760.946 114.133 777.48 127.2C794.28 140.267 803.746 157.6 805.88 179.2H765.88C764.546 168.533 758.946 159.2 749.08 151.2C739.213 142.933 726.146 138.8 709.88 138.8C694.68 138.8 682.28 142.8 672.68 150.8C663.08 158.533 658.28 169.467 658.28 183.6C658.28 193.733 661.08 202 666.68 208.4C672.546 214.8 679.613 219.733 687.88 223.2C696.413 226.4 708.28 230.133 723.48 234.4C741.88 239.467 756.68 244.533 767.88 249.6C779.08 254.4 788.68 262 796.68 272.4C804.68 282.533 808.68 296.4 808.68 314C808.68 327.6 805.08 340.4 797.88 352.4C790.68 364.4 780.013 374.133 765.88 381.6C751.746 389.067 735.08 392.8 715.88 392.8ZM898.645 211.2C905.845 198.667 916.512 188.267 930.645 180C945.045 171.467 961.712 167.2 980.645 167.2C1000.11 167.2 1017.71 171.867 1033.45 181.2C1049.45 190.533 1061.98 203.733 1071.05 220.8C1080.11 237.6 1084.65 257.2 1084.65 279.6C1084.65 301.733 1080.11 321.467 1071.05 338.8C1061.98 356.133 1049.45 369.6 1033.45 379.2C1017.71 388.8 1000.11 393.6 980.645 393.6C961.979 393.6 945.445 389.467 931.045 381.2C916.912 372.667 906.112 362.133 898.645 349.6V494H862.245V170.8H898.645V211.2ZM1047.45 279.6C1047.45 263.067 1044.11 248.667 1037.45 236.4C1030.78 224.133 1021.71 214.8 1010.25 208.4C999.045 202 986.645 198.8 973.045 198.8C959.712 198.8 947.312 202.133 935.845 208.8C924.645 215.2 915.579 224.667 908.645 237.2C901.979 249.467 898.645 263.733 898.645 280C898.645 296.533 901.979 311.067 908.645 323.6C915.579 335.867 924.645 345.333 935.845 352C947.312 358.4 959.712 361.6 973.045 361.6C986.645 361.6 999.045 358.4 1010.25 352C1021.71 345.333 1030.78 335.867 1037.45 323.6C1044.11 311.067 1047.45 296.4 1047.45 279.6ZM1228.16 393.6C1207.62 393.6 1188.96 388.933 1172.16 379.6C1155.62 370.267 1142.56 357.067 1132.96 340C1123.62 322.667 1118.96 302.667 1118.96 280C1118.96 257.6 1123.76 237.867 1133.36 220.8C1143.22 203.467 1156.56 190.267 1173.36 181.2C1190.16 171.867 1208.96 167.2 1229.76 167.2C1250.56 167.2 1269.36 171.867 1286.16 181.2C1302.96 190.267 1316.16 203.333 1325.76 220.4C1335.62 237.467 1340.56 257.333 1340.56 280C1340.56 302.667 1335.49 322.667 1325.36 340C1315.49 357.067 1302.02 370.267 1284.96 379.6C1267.89 388.933 1248.96 393.6 1228.16 393.6ZM1228.16 361.6C1241.22 361.6 1253.49 358.533 1264.96 352.4C1276.42 346.267 1285.62 337.067 1292.56 324.8C1299.76 312.533 1303.36 297.6 1303.36 280C1303.36 262.4 1299.89 247.467 1292.96 235.2C1286.02 222.933 1276.96 213.867 1265.76 208C1254.56 201.867 1242.42 198.8 1229.36 198.8C1216.02 198.8 1203.76 201.867 1192.56 208C1181.62 213.867 1172.82 222.933 1166.16 235.2C1159.49 247.467 1156.16 262.4 1156.16 280C1156.16 297.867 1159.36 312.933 1165.76 325.2C1172.42 337.467 1181.22 346.667 1192.16 352.8C1203.09 358.667 1215.09 361.6 1228.16 361.6ZM1432.82 200.8V330C1432.82 340.667 1435.08 348.267 1439.62 352.8C1444.15 357.067 1452.02 359.2 1463.22 359.2H1490.02V390H1457.22C1436.95 390 1421.75 385.333 1411.62 376C1401.48 366.667 1396.42 351.333 1396.42 330V200.8H1368.02V170.8H1396.42V115.6H1432.82V170.8H1490.02V200.8H1432.82Z" fill="#1E2939"/>
<path d="M666.28 383.2L665.86 384.107L665.87 384.112L665.88 384.117L666.28 383.2ZM632.28 356L631.462 356.576L631.469 356.585L632.28 356ZM619.48 315.6V314.6H618.462L618.48 315.618L619.48 315.6ZM658.28 315.6L659.275 315.498L659.183 314.6H658.28V315.6ZM674.28 348.8L673.583 349.517L673.593 349.527L673.604 349.537L674.28 348.8ZM756.68 349.2L757.334 349.956L757.335 349.955L756.68 349.2ZM763.08 289.6L762.329 290.261L762.329 290.261L763.08 289.6ZM741.08 274.4L740.713 275.33L740.713 275.33L741.08 274.4ZM705.48 263.2L705.738 262.234L705.732 262.232L705.48 263.2ZM661.08 248.8L660.678 249.716L660.686 249.719L661.08 248.8ZM632.68 226.4L631.877 226.997L631.886 227.008L631.895 227.02L632.68 226.4ZM632.68 144.4L633.515 144.95L633.515 144.95L632.68 144.4ZM665.08 117.2L664.667 116.289L664.661 116.292L665.08 117.2ZM777.48 127.2L776.86 127.985L776.866 127.989L777.48 127.2ZM805.88 179.2V180.2H806.983L806.875 179.102L805.88 179.2ZM765.88 179.2L764.887 179.324L764.997 180.2H765.88V179.2ZM749.08 151.2L748.437 151.967L748.444 151.972L748.45 151.977L749.08 151.2ZM672.68 150.8L673.307 151.579L673.313 151.574L673.32 151.568L672.68 150.8ZM666.68 208.4L665.927 209.058L665.935 209.067L665.943 209.076L666.68 208.4ZM687.88 223.2L687.493 224.122L687.511 224.13L687.529 224.136L687.88 223.2ZM723.48 234.4L723.209 235.363L723.214 235.364L723.48 234.4ZM767.88 249.6L767.468 250.511L767.477 250.515L767.486 250.519L767.88 249.6ZM796.68 272.4L795.887 273.01L795.895 273.02L796.68 272.4ZM797.88 352.4L798.737 352.914L798.737 352.914L797.88 352.4ZM765.88 381.6L765.413 380.716L765.88 381.6ZM715.88 391.8C697.597 391.8 681.203 388.621 666.68 382.283L665.88 384.117C680.69 390.579 697.363 393.8 715.88 393.8V391.8ZM666.7 382.293C652.436 375.689 641.245 366.726 633.091 355.415L631.469 356.585C639.847 368.207 651.323 377.378 665.86 384.107L666.7 382.293ZM633.097 355.424C624.953 343.864 620.743 330.595 620.48 315.582L618.48 315.618C618.75 331.005 623.073 344.669 631.462 356.576L633.097 355.424ZM619.48 316.6H658.28V314.6H619.48V316.6ZM657.285 315.702C658.642 329 664.079 340.285 673.583 349.517L674.976 348.083C665.814 339.182 660.584 328.334 659.275 315.498L657.285 315.702ZM673.604 349.537C683.45 358.563 697.595 363 715.88 363V361C697.898 361 684.309 356.637 674.955 348.063L673.604 349.537ZM715.88 363C733.373 363 747.233 358.692 757.334 349.956L756.026 348.444C746.393 356.774 733.053 361 715.88 361V363ZM757.335 349.955C767.691 340.962 772.88 329.485 772.88 315.6H770.88C770.88 328.915 765.935 339.838 756.024 348.445L757.335 349.955ZM772.88 315.6C772.88 304.741 769.889 295.824 763.83 288.939L762.329 290.261C768.004 296.71 770.88 305.125 770.88 315.6H772.88ZM763.83 288.939C757.852 282.146 750.384 276.991 741.446 273.47L740.713 275.33C749.375 278.743 756.574 283.721 762.329 290.261L763.83 288.939ZM741.446 273.47C732.596 269.983 720.689 266.239 705.738 262.234L705.221 264.166C720.138 268.161 731.963 271.884 740.713 275.33L741.446 273.47ZM705.732 262.232C687.357 257.439 672.61 252.653 661.474 247.881L660.686 249.719C671.95 254.547 686.803 259.361 705.227 264.168L705.732 262.232ZM661.482 247.884C650.71 243.155 641.372 235.796 633.465 225.78L631.895 227.02C639.988 237.271 649.582 244.845 660.678 249.716L661.482 247.884ZM633.482 225.803C625.914 215.626 622.08 201.99 622.08 184.8H620.08C620.08 202.276 623.979 216.374 631.877 226.997L633.482 225.803ZM622.08 184.8C622.08 169.779 625.898 156.507 633.515 144.95L631.845 143.85C623.995 155.76 620.08 169.421 620.08 184.8H622.08ZM633.515 144.95C641.137 133.386 651.786 124.437 665.499 118.108L664.661 116.292C650.64 122.763 639.69 131.947 631.845 143.85L633.515 144.95ZM665.492 118.111C679.476 111.779 695.465 108.6 713.48 108.6V106.6C695.228 106.6 678.95 109.821 664.667 116.289L665.492 118.111ZM713.48 108.6C739.443 108.6 760.542 115.088 776.86 127.985L778.1 126.415C761.351 113.178 739.783 106.6 713.48 106.6V108.6ZM776.866 127.989C793.445 140.884 802.778 157.965 804.885 179.298L806.875 179.102C804.715 157.235 795.115 139.649 778.094 126.411L776.866 127.989ZM805.88 178.2H765.88V180.2H805.88V178.2ZM766.872 179.076C765.501 168.107 759.738 158.554 749.709 150.423L748.45 151.977C758.155 159.846 763.592 168.959 764.887 179.324L766.872 179.076ZM749.722 150.433C739.632 141.98 726.318 137.8 709.88 137.8V139.8C725.975 139.8 738.794 143.887 748.437 151.967L749.722 150.433ZM709.88 137.8C694.498 137.8 681.856 141.852 672.04 150.032L673.32 151.568C682.704 143.748 694.861 139.8 709.88 139.8V137.8ZM672.052 150.021C662.18 157.974 657.28 169.214 657.28 183.6H659.28C659.28 169.719 663.979 159.093 673.307 151.579L672.052 150.021ZM657.28 183.6C657.28 193.927 660.138 202.443 665.927 209.058L667.432 207.741C662.021 201.557 659.28 193.54 659.28 183.6H657.28ZM665.943 209.076C671.91 215.586 679.098 220.602 687.493 224.122L688.266 222.278C680.129 218.865 673.183 214.014 667.417 207.724L665.943 209.076ZM687.529 224.136C696.101 227.351 707.999 231.093 723.209 235.363L723.75 233.437C708.561 229.174 696.725 225.449 688.231 222.264L687.529 224.136ZM723.214 235.364C741.588 240.424 756.333 245.474 767.468 250.511L768.292 248.689C757.026 243.592 742.171 238.51 723.745 233.436L723.214 235.364ZM767.486 250.519C778.517 255.247 787.983 262.735 795.887 273.01L797.472 271.79C789.376 261.265 779.643 253.553 768.274 248.681L767.486 250.519ZM795.895 273.02C803.712 282.922 807.68 296.544 807.68 314H809.68C809.68 296.256 805.647 282.145 797.465 271.78L795.895 273.02ZM807.68 314C807.68 327.413 804.132 340.036 797.022 351.886L798.737 352.914C806.028 340.764 809.68 327.787 809.68 314H807.68ZM797.022 351.886C789.929 363.708 779.408 373.322 765.413 380.716L766.347 382.484C780.618 374.945 791.43 365.092 798.737 352.914L797.022 351.886ZM765.413 380.716C751.449 388.093 734.949 391.8 715.88 391.8V393.8C735.21 393.8 752.043 390.041 766.347 382.484L765.413 380.716ZM898.645 211.2H897.645V214.948L899.512 211.698L898.645 211.2ZM930.645 180L931.15 180.863L931.155 180.86L930.645 180ZM1033.45 181.2L1032.94 182.06L1032.94 182.064L1033.45 181.2ZM1071.05 220.8L1070.16 221.269L1070.17 221.275L1071.05 220.8ZM1071.05 338.8L1071.93 339.263L1071.93 339.263L1071.05 338.8ZM1033.45 379.2L1032.93 378.342L1032.92 378.346L1033.45 379.2ZM931.045 381.2L930.528 382.056L930.538 382.062L930.547 382.067L931.045 381.2ZM898.645 349.6L899.504 349.088L897.645 345.968V349.6H898.645ZM898.645 494V495H899.645V494H898.645ZM862.245 494H861.245V495H862.245V494ZM862.245 170.8V169.8H861.245V170.8H862.245ZM898.645 170.8H899.645V169.8H898.645V170.8ZM1037.45 236.4L1038.32 235.922L1038.32 235.922L1037.45 236.4ZM1010.25 208.4L1009.75 209.268L1009.76 209.273L1010.25 208.4ZM935.845 208.8L936.341 209.668L936.348 209.665L935.845 208.8ZM908.645 237.2L907.77 236.716L907.767 236.722L908.645 237.2ZM908.645 323.6L907.762 324.07L907.768 324.081L907.775 324.092L908.645 323.6ZM935.845 352L935.334 352.859L935.346 352.866L935.358 352.873L935.845 352ZM1010.25 352L1010.74 352.868L1010.75 352.865L1010.25 352ZM1037.45 323.6L1038.32 324.078L1038.33 324.07L1037.45 323.6ZM899.512 211.698C906.615 199.335 917.147 189.054 931.15 180.863L930.14 179.137C915.877 187.48 905.076 197.998 897.778 210.702L899.512 211.698ZM931.155 180.86C945.381 172.43 961.867 168.2 980.645 168.2V166.2C961.557 166.2 944.709 170.503 930.136 179.14L931.155 180.86ZM980.645 168.2C999.944 168.2 1017.37 172.824 1032.94 182.06L1033.96 180.34C1018.06 170.909 1000.28 166.2 980.645 166.2V168.2ZM1032.94 182.064C1048.77 191.299 1061.18 204.359 1070.16 221.269L1071.93 220.331C1062.78 203.107 1050.12 189.767 1033.95 180.336L1032.94 182.064ZM1070.17 221.275C1079.14 237.906 1083.65 257.337 1083.65 279.6H1085.65C1085.65 257.063 1081.08 237.294 1071.93 220.325L1070.17 221.275ZM1083.65 279.6C1083.65 301.593 1079.14 321.164 1070.16 338.337L1071.93 339.263C1081.08 321.769 1085.65 301.873 1085.65 279.6H1083.65ZM1070.16 338.336C1061.17 355.515 1048.77 368.842 1032.93 378.343L1033.96 380.057C1050.13 370.358 1062.78 356.752 1071.93 339.263L1070.16 338.336ZM1032.92 378.346C1017.36 387.845 999.939 392.6 980.645 392.6V394.6C1000.28 394.6 1018.07 389.755 1033.97 380.054L1032.92 378.346ZM980.645 392.6C962.131 392.6 945.774 388.502 931.543 380.333L930.547 382.067C945.117 390.431 961.826 394.6 980.645 394.6V392.6ZM931.562 380.344C917.551 371.884 906.876 361.463 899.504 349.088L897.786 350.112C905.347 362.804 916.273 373.449 930.528 382.056L931.562 380.344ZM897.645 349.6V494H899.645V349.6H897.645ZM898.645 493H862.245V495H898.645V493ZM863.245 494V170.8H861.245V494H863.245ZM862.245 171.8H898.645V169.8H862.245V171.8ZM897.645 170.8V211.2H899.645V170.8H897.645ZM1048.45 279.6C1048.45 262.931 1045.08 248.361 1038.32 235.922L1036.57 236.878C1043.14 248.973 1046.45 263.203 1046.45 279.6H1048.45ZM1038.32 235.922C1031.57 223.501 1022.38 214.025 1010.73 207.527L1009.76 209.273C1021.05 215.575 1029.98 224.766 1036.57 236.878L1038.32 235.922ZM1010.74 207.532C999.382 201.041 986.81 197.8 973.045 197.8V199.8C986.481 199.8 998.709 202.959 1009.75 209.268L1010.74 207.532ZM973.045 197.8C959.536 197.8 946.963 201.18 935.343 207.935L936.348 209.665C947.661 203.087 959.888 199.8 973.045 199.8V197.8ZM935.349 207.932C923.973 214.432 914.782 224.04 907.77 236.716L909.52 237.684C916.375 225.293 925.318 215.968 936.341 209.668L935.349 207.932ZM907.767 236.722C901.008 249.158 897.645 263.594 897.645 280H899.645C899.645 263.872 902.949 249.775 909.524 237.678L907.767 236.722ZM897.645 280C897.645 296.67 901.007 311.37 907.762 324.07L909.528 323.13C902.95 310.764 899.645 296.397 899.645 280H897.645ZM907.775 324.092C914.787 336.498 923.972 346.096 935.334 352.859L936.357 351.141C925.318 344.57 916.371 335.236 909.516 323.108L907.775 324.092ZM935.358 352.873C946.976 359.358 959.544 362.6 973.045 362.6V360.6C959.88 360.6 947.648 357.442 936.333 351.127L935.358 352.873ZM973.045 362.6C986.81 362.6 999.382 359.359 1010.74 352.868L1009.75 351.132C998.709 357.441 986.481 360.6 973.045 360.6V362.6ZM1010.75 352.865C1022.38 346.101 1031.57 336.496 1038.32 324.078L1036.57 323.122C1029.98 335.237 1021.04 344.566 1009.74 351.135L1010.75 352.865ZM1038.33 324.07C1045.08 311.367 1048.45 296.534 1048.45 279.6H1046.45C1046.45 296.266 1043.14 310.766 1036.56 323.13L1038.33 324.07ZM1172.16 379.6L1171.67 380.471L1171.67 380.474L1172.16 379.6ZM1132.96 340L1132.08 340.474L1132.08 340.482L1132.09 340.49L1132.96 340ZM1133.36 220.8L1132.49 220.305L1132.49 220.31L1133.36 220.8ZM1173.36 181.2L1173.83 182.08L1173.84 182.074L1173.36 181.2ZM1286.16 181.2L1285.67 182.074L1285.68 182.08L1286.16 181.2ZM1325.76 220.4L1324.89 220.89L1324.89 220.9L1325.76 220.4ZM1325.36 340L1324.49 339.495L1324.49 339.499L1325.36 340ZM1284.96 379.6L1285.44 380.477L1285.44 380.477L1284.96 379.6ZM1292.56 324.8L1291.7 324.294L1291.69 324.301L1291.69 324.308L1292.56 324.8ZM1265.76 208L1265.28 208.877L1265.29 208.882L1265.29 208.886L1265.76 208ZM1192.56 208L1193.03 208.881L1193.04 208.877L1192.56 208ZM1166.16 235.2L1167.04 235.678L1167.04 235.678L1166.16 235.2ZM1165.76 325.2L1164.87 325.663L1164.88 325.67L1164.88 325.678L1165.76 325.2ZM1192.16 352.8L1191.67 353.672L1191.68 353.677L1191.68 353.681L1192.16 352.8ZM1228.16 392.6C1207.78 392.6 1189.28 387.971 1172.64 378.726L1171.67 380.474C1188.63 389.896 1207.47 394.6 1228.16 394.6V392.6ZM1172.65 378.729C1156.28 369.489 1143.34 356.422 1133.83 339.51L1132.09 340.49C1141.77 357.711 1154.97 371.045 1171.67 380.471L1172.65 378.729ZM1133.84 339.526C1124.59 322.359 1119.96 302.526 1119.96 280H1117.96C1117.96 302.807 1122.65 322.974 1132.08 340.474L1133.84 339.526ZM1119.96 280C1119.96 257.747 1124.73 238.187 1134.23 221.29L1132.49 220.31C1122.79 237.546 1117.96 257.453 1117.96 280H1119.96ZM1134.23 221.295C1144.01 204.117 1157.21 191.054 1173.83 182.08L1172.88 180.32C1155.91 189.48 1142.44 202.817 1132.49 220.305L1134.23 221.295ZM1173.84 182.074C1190.48 172.83 1209.11 168.2 1229.76 168.2V166.2C1208.8 166.2 1189.83 170.903 1172.87 180.326L1173.84 182.074ZM1229.76 168.2C1250.4 168.2 1269.03 172.83 1285.67 182.074L1286.64 180.326C1269.68 170.903 1250.71 166.2 1229.76 166.2V168.2ZM1285.68 182.08C1302.31 191.054 1315.38 203.984 1324.89 220.89L1326.63 219.91C1316.94 202.683 1303.6 189.479 1286.63 180.32L1285.68 182.08ZM1324.89 220.9C1334.66 237.793 1339.56 257.482 1339.56 280H1341.56C1341.56 257.184 1336.59 237.14 1326.62 219.899L1324.89 220.9ZM1339.56 280C1339.56 302.513 1334.53 322.334 1324.49 339.495L1326.22 340.505C1336.46 322.999 1341.56 302.821 1341.56 280H1339.56ZM1324.49 339.499C1314.72 356.41 1301.38 369.478 1284.48 378.723L1285.44 380.477C1302.67 371.055 1316.27 357.724 1326.22 340.501L1324.49 339.499ZM1284.48 378.723C1267.57 387.97 1248.8 392.6 1228.16 392.6V394.6C1249.11 394.6 1268.21 389.897 1285.44 380.477L1284.48 378.723ZM1228.16 362.6C1241.39 362.6 1253.82 359.493 1265.43 353.282L1264.49 351.518C1253.17 357.574 1241.06 360.6 1228.16 360.6V362.6ZM1265.43 353.282C1277.08 347.052 1286.41 337.709 1293.43 325.292L1291.69 324.308C1284.84 336.424 1275.77 345.482 1264.49 351.518L1265.43 353.282ZM1293.42 325.306C1300.73 312.854 1304.36 297.736 1304.36 280H1302.36C1302.36 297.464 1298.79 312.213 1291.7 324.294L1293.42 325.306ZM1304.36 280C1304.36 262.27 1300.87 247.158 1293.83 234.708L1292.09 235.692C1298.92 247.776 1302.36 262.53 1302.36 280H1304.36ZM1293.83 234.708C1286.81 222.293 1277.61 213.08 1266.22 207.114L1265.29 208.886C1276.3 214.653 1285.24 223.573 1292.09 235.692L1293.83 234.708ZM1266.24 207.123C1254.89 200.907 1242.59 197.8 1229.36 197.8V199.8C1242.26 199.8 1254.23 202.826 1265.28 208.877L1266.24 207.123ZM1229.36 197.8C1215.86 197.8 1203.43 200.905 1192.08 207.123L1193.04 208.877C1204.08 202.828 1216.18 199.8 1229.36 199.8V197.8ZM1192.09 207.119C1180.96 213.089 1172.03 222.307 1165.28 234.722L1167.04 235.678C1173.62 223.56 1182.29 214.644 1193.03 208.881L1192.09 207.119ZM1165.28 234.722C1158.51 247.169 1155.16 262.276 1155.16 280H1157.16C1157.16 262.524 1160.47 247.764 1167.04 235.678L1165.28 234.722ZM1155.16 280C1155.16 297.982 1158.38 313.218 1164.87 325.663L1166.64 324.737C1160.34 312.649 1157.16 297.751 1157.16 280H1155.16ZM1164.88 325.678C1171.63 338.09 1180.55 347.436 1191.67 353.672L1192.65 351.928C1181.9 345.897 1173.22 336.843 1166.64 324.722L1164.88 325.678ZM1191.68 353.681C1202.77 359.63 1214.94 362.6 1228.16 362.6V360.6C1215.25 360.6 1203.41 357.703 1192.63 351.919L1191.68 353.681ZM1432.82 200.8V199.8H1431.82V200.8H1432.82ZM1439.62 352.8L1438.91 353.507L1438.92 353.518L1438.93 353.528L1439.62 352.8ZM1490.02 359.2H1491.02V358.2H1490.02V359.2ZM1490.02 390V391H1491.02V390H1490.02ZM1411.62 376L1410.94 376.736L1411.62 376ZM1396.42 200.8H1397.42V199.8H1396.42V200.8ZM1368.02 200.8H1367.02V201.8H1368.02V200.8ZM1368.02 170.8V169.8H1367.02V170.8H1368.02ZM1396.42 170.8V171.8H1397.42V170.8H1396.42ZM1396.42 115.6V114.6H1395.42V115.6H1396.42ZM1432.82 115.6H1433.82V114.6H1432.82V115.6ZM1432.82 170.8H1431.82V171.8H1432.82V170.8ZM1490.02 170.8H1491.02V169.8H1490.02V170.8ZM1490.02 200.8V201.8H1491.02V200.8H1490.02ZM1431.82 200.8V330H1433.82V200.8H1431.82ZM1431.82 330C1431.82 340.765 1434.1 348.694 1438.91 353.507L1440.32 352.093C1436.07 347.839 1433.82 340.568 1433.82 330H1431.82ZM1438.93 353.528C1443.75 358.064 1451.95 360.2 1463.22 360.2V358.2C1452.09 358.2 1444.55 356.069 1440.3 352.072L1438.93 353.528ZM1463.22 360.2H1490.02V358.2H1463.22V360.2ZM1489.02 359.2V390H1491.02V359.2H1489.02ZM1490.02 389H1457.22V391H1490.02V389ZM1457.22 389C1437.09 389 1422.17 384.363 1412.29 375.264L1410.94 376.736C1421.33 386.304 1436.82 391 1457.22 391V389ZM1412.29 375.264C1402.46 366.203 1397.42 351.205 1397.42 330H1395.42C1395.42 351.461 1400.51 367.13 1410.94 376.736L1412.29 375.264ZM1397.42 330V200.8H1395.42V330H1397.42ZM1396.42 199.8H1368.02V201.8H1396.42V199.8ZM1369.02 200.8V170.8H1367.02V200.8H1369.02ZM1368.02 171.8H1396.42V169.8H1368.02V171.8ZM1397.42 170.8V115.6H1395.42V170.8H1397.42ZM1396.42 116.6H1432.82V114.6H1396.42V116.6ZM1431.82 115.6V170.8H1433.82V115.6H1431.82ZM1432.82 171.8H1490.02V169.8H1432.82V171.8ZM1489.02 170.8V200.8H1491.02V170.8H1489.02ZM1490.02 199.8H1432.82V201.8H1490.02V199.8Z" fill="black" mask="url(#path-3-outside-1_1_2)"/>
</g>
<defs>
<clipPath id="clip0_1_2">
<rect width="1655" height="500" fill="white"/>
</clipPath>
<clipPath id="clip1_1_2">
<rect width="500" height="500" fill="white" transform="translate(72)"/>
</clipPath>
</defs>
</svg>
